<svg width="50" height="50" viewBox="0 0 50 50" fill="none" xmlns="http://www.w3.org/2000/svg">
<path d="M29.7822 24.7651L29.7827 24.7648C31.6933 23.3119 33.868 21.5728 33.868 17.9398C33.868 15.4194 32.7952 13.522 31.1295 12.2687C29.4799 11.0275 27.2782 10.4375 25.0168 10.4375C22.969 10.4375 20.7848 10.9133 19.0601 12.1121C17.3155 13.3246 16.0792 15.2526 15.923 18.0539C15.882 18.7884 16.4854 19.3522 17.176 19.3522H19.7526C20.4756 19.3522 20.9949 18.7721 21.0805 18.14C21.2066 17.21 21.5832 16.4401 22.1799 15.9032C22.774 15.3686 23.6274 15.0279 24.7788 15.0279C25.7752 15.0279 26.6823 15.2781 27.3283 15.7805C27.9562 16.2689 28.3849 17.031 28.3849 18.1778C28.3849 19.0517 28.1338 19.6659 27.6798 20.2297C27.2038 20.8207 26.5063 21.3575 25.5725 22.0604C23.4311 23.6166 21.5935 25.5379 21.72 28.6848L21.7292 29.3556C21.7388 30.0563 22.3096 30.6193 23.0104 30.6193H25.5448C26.2524 30.6193 26.826 30.0457 26.826 29.3381V29.0085C26.826 27.9634 27.0213 27.3553 27.4389 26.8033C27.8886 26.2089 28.6102 25.6543 29.7822 24.7651ZM20.7876 36.0901C20.7876 38.0707 22.3804 39.4862 24.4416 39.4862C26.5778 39.4862 28.1551 38.0747 28.1551 36.0901C28.1551 35.0943 27.7742 34.2242 27.1003 33.6065C26.4296 32.9916 25.4997 32.6543 24.4416 32.6543C22.378 32.6543 20.7876 34.0521 20.7876 36.0901Z" fill="#ffffff" stroke="#ffffff" id="id_101"></path>
</svg>